<?xml version="1.0" encoding="UTF-8" standalone="no" ?>
<svg width="1582.746"
   height="1796.032"
   viewBox="0 0 1582.746 1796.032" version="1.1" xmlns="http://www.w3.org/2000/svg" xmlns:xlink="http://www.w3.org/1999/xlink" preserveAspectRatio="xMidYMid">
  <g
   id="Logo_artwork"
   transform="translate(-208.627,-101.984)">
</g>
<g
   id="Guides_to_delete"
   transform="translate(-208.627,-101.984)">
	<g
   id="g208">
		<polygon
   fill="#e34e26"
   points="1791.373,101.984 1647.093,1718.528 999.615,1898.016 352.732,1718.4 208.627,101.984 "
   id="polygon196" />
		<polygon
   fill="#ef662a"
   points="1523.565,1615.585 1646.918,234.108 1000,234.108 1000,1760.716 "
   id="polygon198" />
		<polygon
   fill="#ffffff"
   points="1244.048,1031.897 1220.988,1289.041 999.744,1348.857 778.919,1289.128 764.155,1124.017 565.155,1124.017 593.611,1442.302 999.697,1555.086 1406.296,1442.302 1460.806,833.669 738.229,833.669 720.086,630.648 1478.168,630.648 1478.773,630.648 1496.532,432.378 503.468,432.378 556.906,1031.897 "
   id="polygon200" />
		<g
   id="g206">
			<polygon
   fill="#ebebeb"
   points="556.906,1031.897 1000,1031.897 1000,833.669 738.229,833.669 720.086,630.648 1000,630.648 1000,432.378 503.468,432.378 "
   id="polygon202" />
			<polygon
   fill="#ebebeb"
   points="778.919,1289.128 764.155,1124.017 565.155,1124.017 593.611,1442.302 999.697,1555.086 1000,1555.001 1000,1348.771 999.744,1348.857 "
   id="polygon204" />
		</g>
	</g>
</g>
</svg>
